<svg width="18" height="19" viewBox="0 0 18 19" fill="none" xmlns="http://www.w3.org/2000/svg">
<path d="M9.24533 18.9337C6.91533 18.9337 4.58533 18.5637 2.37533 17.8237C1.53533 17.5337 0.895333 16.9437 0.615333 16.1737C0.325333 15.4037 0.425333 14.5537 0.885333 13.7937L2.03533 11.8837C2.27533 11.4837 2.49533 10.6837 2.49533 10.2137V7.32373C2.49533 3.60373 5.52533 0.57373 9.24533 0.57373C12.9653 0.57373 15.9953 3.60373 15.9953 7.32373V10.2137C15.9953 10.6737 16.2153 11.4837 16.4553 11.8937L17.5953 13.7937C18.0253 14.5137 18.1053 15.3837 17.8153 16.1737C17.5253 16.9637 16.8953 17.5637 16.1053 17.8237C13.9053 18.5637 11.5753 18.9337 9.24533 18.9337ZM9.24533 2.07373C6.35533 2.07373 3.99533 4.42373 3.99533 7.32373V10.2137C3.99533 10.9437 3.69533 12.0237 3.32533 12.6537L2.17533 14.5637C1.95533 14.9337 1.89533 15.3237 2.02533 15.6537C2.14533 15.9937 2.44533 16.2537 2.85533 16.3937C7.03533 17.7937 11.4653 17.7937 15.6453 16.3937C16.0053 16.2737 16.2853 16.0037 16.4153 15.6437C16.5453 15.2837 16.5153 14.8937 16.3153 14.5637L15.1653 12.6537C14.7853 12.0037 14.4953 10.9337 14.4953 10.2037V7.32373C14.4953 4.42373 12.1453 2.07373 9.24533 2.07373Z" fill="#292D32"/>
</svg>
